<?xml version="1.0" encoding="iso-8859-1"?>
<!-- Generator: Adobe Illustrator 19.0.0, SVG Export Plug-In . SVG Version: 6.00 Build 0)  -->
<svg version="1.1" id="Layer_1" xmlns="http://www.w3.org/2000/svg" xmlns:xlink="http://www.w3.org/1999/xlink" x="0px" y="0px"
	 viewBox="0 0 512 512" style="enable-background:new 0 0 512 512;" xml:space="preserve">
<path style="fill:#E04F5F;" d="M151.728,420.544L317.616,295.04l42.656-203.584L194.384,216.96L151.728,420.544z M256,227.632
	c15.44,0,27.968,12.704,27.968,28.368S271.44,284.368,256,284.368S228.032,271.664,228.032,256S240.56,227.632,256,227.632z"/>
<ellipse style="fill:#FFFFFF;" cx="256" cy="256" rx="27.968" ry="28.368"/>
<path style="fill:#2C3E50;" d="M256,0C114.608,0,0,114.608,0,256s114.608,256,256,256s256-114.608,256-256S397.392,0,256,0z
	 M317.616,295.04L151.728,420.544l42.656-203.584L360.272,91.456L317.616,295.04z"/>
<g>
</g>
<g>
</g>
<g>
</g>
<g>
</g>
<g>
</g>
<g>
</g>
<g>
</g>
<g>
</g>
<g>
</g>
<g>
</g>
<g>
</g>
<g>
</g>
<g>
</g>
<g>
</g>
<g>
</g>
</svg>
